<svg width="48" height="48" viewBox="0 0 48 48" fill="none" xmlns="http://www.w3.org/2000/svg">
<g id="Communication / Bell_Notification">
<path id="Vector" d="M30 34V36C30 39.3137 27.3137 42 24 42C20.6863 42 18 39.3137 18 36V34.0002M30 34L18 34.0002M30 34H38C39.1046 34 40 33.1046 40 32V30.8281C40 30.2977 39.7891 29.7893 39.4141 29.4141L38.3926 28.3926C38.1412 28.1412 38 27.7999 38 27.4443V20C38 19.6471 37.9873 19.2971 37.9609 18.9522M18 34.0002L10 34.0003C8.89544 34.0003 8 33.1042 8 31.9996V30.8281C8 30.2977 8.21088 29.7898 8.58594 29.4146L9.60742 28.3917C9.85878 28.1403 10 27.8004 10 27.4448V20C10 12.268 16.268 6 24 6C25.4232 6 26.7968 6.21237 28.0909 6.60714M37.9609 18.9522C40.3737 17.5746 42 14.9772 42 12C42 7.58172 38.4183 4 34 4C31.6595 4 29.5538 5.00507 28.0909 6.60714M37.9609 18.9522C36.7931 19.619 35.4411 20 34 20C29.5817 20 26 16.4183 26 12C26 9.9222 26.7921 8.02941 28.0909 6.60714M37.9609 18.9522C37.9609 18.9522 37.9609 18.9522 37.9609 18.9522ZM28.0909 6.60714C28.0918 6.60742 28.0927 6.60771 28.0937 6.60799" stroke="url(#paint0_linear_624_9495)" stroke-width="3" stroke-linecap="round" stroke-linejoin="round"/>
</g>
<defs>
<linearGradient id="paint0_linear_624_9495" x1="14.8161" y1="36.4294" x2="41.6865" y2="5.82906" gradientUnits="userSpaceOnUse">
<stop stop-color="#015FEA"/>
<stop offset="1" stop-color="#00DBF9"/>
</linearGradient>
</defs>
</svg>
