<svg width="80" height="80" viewBox="0 0 80 80" fill="none" xmlns="http://www.w3.org/2000/svg">
<path d="M50 56.6668V60.0002C50 65.523 45.5229 70.0002 40 70.0002C34.4772 70.0002 30 65.523 30 60.0002V56.6668M50 56.6668H30M50 56.6668H61.9684C63.2435 56.6668 63.8841 56.6668 64.4004 56.4927C65.3866 56.16 66.1583 55.3856 66.4909 54.3994C66.6658 53.8811 66.6658 53.2384 66.6658 51.9533C66.6658 51.3909 66.6651 51.1098 66.6211 50.8416C66.538 50.335 66.3414 49.8546 66.0419 49.4376C65.8837 49.2172 65.6825 49.016 65.2861 48.6196L63.9877 47.3211C63.5688 46.9022 63.3334 46.3339 63.3334 45.7415V33.3335C63.3334 20.4468 52.8867 10.0001 40 10.0002C27.1134 10.0002 16.6667 20.4469 16.6667 33.3335V45.7416C16.6667 46.3341 16.4309 46.9022 16.0119 47.3211L14.7136 48.6195C14.3159 49.0171 14.1168 49.217 13.9584 49.4377C13.6589 49.8547 13.4605 50.335 13.3774 50.8416C13.3334 51.1098 13.3334 51.391 13.3334 51.9534C13.3334 53.2385 13.3334 53.881 13.5082 54.3993C13.8409 55.3855 14.616 56.16 15.6023 56.4927C16.1186 56.6668 16.7568 56.6668 18.0319 56.6668H30M60.0619 6.7124C64.6593 10.1768 68.2811 14.7727 70.5747 20.0526M19.9399 6.7124C15.3425 10.1768 11.7207 14.7727 9.42712 20.0526" stroke="url(#paint0_linear_624_9598)" stroke-width="3" stroke-linecap="round" stroke-linejoin="round"/>
<defs>
<linearGradient id="paint0_linear_624_9598" x1="21.6856" y1="60.7226" x2="65.8678" y2="6.38956" gradientUnits="userSpaceOnUse">
<stop stop-color="#015FEA"/>
<stop offset="1" stop-color="#00DBF9"/>
</linearGradient>
</defs>
</svg>
