<svg width="48" height="48" viewBox="0 0 48 48" fill="none" xmlns="http://www.w3.org/2000/svg">
<g id="Interface / Book_Open">
<path id="Vector" d="M24 19.5996V39.9996M24 19.5996C24 16.2393 24 14.5598 24.654 13.2764C25.2292 12.1474 26.1464 11.2292 27.2754 10.654C28.5589 10 30.2393 10 33.5996 10H38.7996C39.9197 10 40.4802 10 40.908 10.218C41.2843 10.4097 41.5895 10.7155 41.7812 11.0918C41.9992 11.5196 42 12.0801 42 13.2002V30.8002C42 31.9203 41.9992 32.4796 41.7812 32.9074C41.5895 33.2837 41.285 33.5905 40.9086 33.7822C40.4812 34 39.922 34 38.8041 34H33.1387C31.2602 34 30.3193 34 29.4668 34.2589C28.7121 34.4881 28.0113 34.8634 27.402 35.3643C26.7136 35.93 26.192 36.7115 25.1501 38.2744L24 39.9996M24 19.5996C24 16.2393 23.9997 14.5598 23.3457 13.2764C22.7705 12.1474 21.8525 11.2292 20.7236 10.654C19.4401 10 17.7595 10 14.3992 10H9.19922C8.07911 10 7.51962 10 7.0918 10.218C6.71547 10.4097 6.40973 10.7155 6.21799 11.0918C6 11.5196 6 12.0801 6 13.2002V30.8002C6 31.9203 6 32.4796 6.21799 32.9074C6.40973 33.2837 6.71547 33.5905 7.0918 33.7822C7.5192 34 8.07802 34 9.19593 34H14.8615C16.7399 34 17.6788 34 18.5314 34.2589C19.2861 34.4881 19.9902 34.8634 20.5996 35.3643C21.2851 35.9277 21.8034 36.7052 22.837 38.2554L24 39.9996" stroke="url(#paint0_linear_624_9542)" stroke-width="3" stroke-linecap="round" stroke-linejoin="round"/>
</g>
<defs>
<linearGradient id="paint0_linear_624_9542" x1="13.2171" y1="35.6018" x2="32.8246" y2="5.65395" gradientUnits="userSpaceOnUse">
<stop stop-color="#015FEA"/>
<stop offset="1" stop-color="#00DBF9"/>
</linearGradient>
</defs>
</svg>
