<svg width="80" height="80" viewBox="0 0 80 80" fill="none" xmlns="http://www.w3.org/2000/svg">
<g id="Calendar / Calendar_Days">
<path id="Vector" d="M26.6667 13.3332H24.0006C20.267 13.3332 18.3987 13.3332 16.9727 14.0598C15.7182 14.6989 14.6991 15.7181 14.06 16.9725C13.3333 18.3986 13.3333 20.2668 13.3333 24.0005V26.6665M26.6667 13.3332H53.3333M26.6667 13.3332V6.6665M53.3333 13.3332H56.0006C59.7343 13.3332 61.5986 13.3332 63.0246 14.0598C64.2791 14.6989 65.3016 15.7181 65.9407 16.9725C66.6667 18.3972 66.6667 20.2631 66.6667 23.9895V26.6665M53.3333 13.3332V6.6665M13.3333 26.6665V56.0005C13.3333 59.7342 13.3333 61.6 14.06 63.0261C14.6991 64.2805 15.7182 65.3014 16.9727 65.9406C18.3973 66.6665 20.2633 66.6665 23.9897 66.6665H56.0103C59.7367 66.6665 61.6 66.6665 63.0246 65.9406C64.2791 65.3014 65.3016 64.2805 65.9407 63.0261C66.6667 61.6014 66.6667 59.7381 66.6667 56.0118V26.6665M13.3333 26.6665H66.6667M53.3333 53.3332H53.34L53.3398 53.3398L53.3333 53.3397V53.3332ZM40 53.3332H40.0067L40.0065 53.3398L40 53.3397V53.3332ZM26.6667 53.3332H26.6733L26.6732 53.3398L26.6667 53.3397V53.3332ZM53.3398 39.9998V40.0065L53.3333 40.0063V39.9998H53.3398ZM40 39.9998H40.0067L40.0065 40.0065L40 40.0063V39.9998ZM26.6667 39.9998H26.6733L26.6732 40.0065L26.6667 40.0063V39.9998Z" stroke="url(#paint0_linear_624_9630)" stroke-width="3" stroke-linecap="round" stroke-linejoin="round"/>
</g>
<defs>
<linearGradient id="paint0_linear_624_9630" x1="24.0253" y1="57.8709" x2="66.4873" y2="9.8306" gradientUnits="userSpaceOnUse">
<stop stop-color="#015FEA"/>
<stop offset="1" stop-color="#00DBF9"/>
</linearGradient>
</defs>
</svg>
