<svg width="80" height="80" viewBox="0 0 80 80" fill="none" xmlns="http://www.w3.org/2000/svg">
<g id="Communication / Chat_Check">
<path id="Vector" d="M50 30.0002L36.6667 43.3335L30 36.6668M23.7452 62.3374L18.6654 66.4013C15.8915 68.6204 14.5038 69.7304 13.3366 69.7317C12.3215 69.7328 11.3615 69.2713 10.7282 68.4779C10 67.5656 10 65.7898 10 62.2375V24.0008C10 20.2671 10 18.3989 10.7266 16.9728C11.3658 15.7184 12.3849 14.6993 13.6393 14.0601C15.0654 13.3335 16.9336 13.3335 20.6673 13.3335H59.334C63.0677 13.3335 64.9335 13.3335 66.3596 14.0601C67.614 14.6993 68.6349 15.7184 69.2741 16.9728C70 18.3975 70 20.2635 70 23.9899V49.3454C70 53.0718 70 54.9351 69.2741 56.3598C68.6349 57.6142 67.6145 58.6351 66.3601 59.2743C64.9354 60.0002 63.0716 60.0002 59.3453 60.0002H30.4085C29.0217 60.0002 28.3276 60.0002 27.6644 60.1363C27.076 60.257 26.5072 60.456 25.9723 60.7293C25.3716 61.0362 24.8321 61.4678 23.7574 62.3276L23.7452 62.3374Z" stroke="url(#paint0_linear_668_1084)" stroke-width="3" stroke-linecap="round" stroke-linejoin="round"/>
</g>
<defs>
<linearGradient id="paint0_linear_668_1084" x1="22.0285" y1="61.4641" x2="60.4665" y2="9.41605" gradientUnits="userSpaceOnUse">
<stop stop-color="#015FEA"/>
<stop offset="1" stop-color="#00DBF9"/>
</linearGradient>
</defs>
</svg>
