<svg width="33" height="33" viewBox="0 0 33 33" fill="none" xmlns="http://www.w3.org/2000/svg">
<path fill-rule="evenodd" clip-rule="evenodd" d="M16.5005 3.28662C9.13644 3.28662 3.16666 9.25749 3.16666 16.6205C3.16666 23.9846 9.13644 29.9533 16.5005 29.9533C23.8646 29.9533 29.8344 23.9846 29.8344 16.6205C29.8344 9.25749 23.8641 3.28662 16.5005 3.28662ZM20.0293 16.5647H17.7205C17.7205 20.2543 17.7205 24.799 17.7205 24.799H14.2983C14.2983 24.799 14.2983 20.3009 14.2983 16.5647H12.6707V13.6575H14.2983V11.7737C14.2983 10.4255 14.9384 8.32073 17.7524 8.32073L20.2865 8.33048V11.1543C20.2865 11.1543 18.7455 11.1543 18.4466 11.1543C18.1461 11.1543 17.721 11.3043 17.721 11.9454V13.6581H20.3299L20.0293 16.5647Z" fill="#0091F2"/>
</svg>
