<svg width="33" height="33" viewBox="0 0 33 33" fill="none" xmlns="http://www.w3.org/2000/svg">
<path fill-rule="evenodd" clip-rule="evenodd" d="M3.16666 16.62C3.16666 9.24868 9.12872 3.28662 16.5 3.28662C23.8713 3.28662 29.8875 9.24868 29.8333 16.62C29.8333 23.9912 23.8713 29.9533 16.5 29.9533C9.12872 29.9533 3.16666 23.9912 3.16666 16.62ZM22.4078 22.853C23.1667 22.0942 23.6003 21.0102 23.6003 19.7636V13.8015C23.6003 12.5549 23.2209 11.5251 22.462 10.7663C21.7032 10.0075 20.6734 9.57388 19.4268 9.57388H13.4648C10.9173 9.57388 9.23712 11.3083 9.23712 13.8015V19.7636C9.23712 21.0102 9.61652 22.0942 10.4295 22.853C11.1883 23.6118 12.2723 23.9912 13.4648 23.9912H19.3726C20.565 23.9912 21.649 23.6118 22.4078 22.853ZM20.2398 13.7473C19.752 13.7473 19.3726 13.3679 19.3726 12.8801C19.3726 12.3923 19.752 12.0129 20.2398 12.0129C20.7276 12.0129 21.107 12.3923 21.107 12.8801C21.107 13.3679 20.7276 13.7473 20.2398 13.7473ZM16.3916 13.0427C18.397 13.0427 20.1314 14.6687 20.1314 16.7284C20.1314 18.788 18.4512 20.414 16.3916 20.414C14.332 20.414 12.706 18.7338 12.706 16.7284C12.706 14.6687 14.3862 13.0427 16.3916 13.0427ZM16.3916 14.3761C15.1007 14.3761 14.0393 15.4268 14.0393 16.7284C14.0393 18.0192 15.09 19.0807 16.3916 19.0807C17.7313 19.0807 18.7981 18.0352 18.7981 16.7284C18.7981 15.4427 17.6988 14.3761 16.3916 14.3761Z" fill="#0091F2"/>
</svg>
