<svg width="27" height="27" viewBox="0 0 27 27" fill="none" xmlns="http://www.w3.org/2000/svg">
    <path id="Shape" fill-rule="evenodd" clip-rule="evenodd" d="M13.3333 0.216309C5.96954 0.216309 0 6.18585 0 13.5496C0 20.9145 5.96954 26.883 13.3333 26.883C20.696 26.883 26.6656 20.9145 26.6656 13.5496C26.6656 6.18639 20.6955 0.216309 13.3333 0.216309ZM20.7594 20.026C20.7594 20.6194 20.2667 21.0991 19.6597 21.0991H6.9799C6.37185 21.0991 5.8802 20.6189 5.8802 20.026V7.19946C5.8802 6.6071 6.37185 6.12629 6.9799 6.12629H19.6592C20.2661 6.12629 20.7589 6.60765 20.7589 7.19946V20.026H20.7594ZM13.8813 12.8577C14.1802 12.3963 14.7146 11.7417 15.9063 11.7417C17.3845 11.7417 18.4939 12.7071 18.4945 14.7842V18.6594H16.2474V15.0424C16.2474 14.1339 15.9226 13.5134 15.1082 13.5134C14.4883 13.5134 14.1184 13.9335 13.9555 14.3364C13.8959 14.4815 13.8813 14.6813 13.8813 14.8843V18.6599H11.6342C11.6342 18.6599 11.664 12.5339 11.6342 11.9004H13.8813V12.8577ZM13.8813 12.8577C13.8775 12.8652 13.8721 12.8734 13.8667 12.8799H13.8813V12.8577ZM9.28162 8.63973C8.5133 8.63973 8.00975 9.14545 8.00975 9.80873C8.00975 10.4569 8.49706 10.9772 9.25184 10.9772H9.26646C10.0499 10.9772 10.5378 10.4569 10.5378 9.80873C10.5232 9.14545 10.0505 8.63973 9.28162 8.63973ZM10.3911 11.9004H8.14349V18.6599H10.3911V11.9004Z" fill="#0091F2"/>
</svg>
