<svg width="28" height="27" viewBox="0 0 28 27" fill="none" xmlns="http://www.w3.org/2000/svg">
<path fill-rule="evenodd" clip-rule="evenodd" d="M14.1677 0.286621C6.80396 0.286621 0.834412 6.25616 0.834412 13.62C0.834412 20.9848 6.80396 26.9533 14.1677 26.9533C21.5305 26.9533 27.5 20.9848 27.5 13.62C27.5 6.25671 21.5299 0.286621 14.1677 0.286621ZM21.5938 20.0963C21.5938 20.6897 21.1011 21.1695 20.4941 21.1695H7.81431C7.20626 21.1695 6.71462 20.6892 6.71462 20.0963V7.26977C6.71462 6.67742 7.20626 6.1966 7.81431 6.1966H20.4936C21.1005 6.1966 21.5933 6.67796 21.5933 7.26977V20.0963H21.5938ZM14.7157 12.928C15.0146 12.4667 15.549 11.812 16.7407 11.812C18.2189 11.812 19.3284 12.7775 19.3289 14.8545V18.7297H17.0819V15.1127C17.0819 14.2042 16.757 13.5837 15.9426 13.5837C15.3227 13.5837 14.9529 14.0038 14.7899 14.4067C14.7303 14.5518 14.7157 14.7516 14.7157 14.9546V18.7302H12.4687C12.4687 18.7302 12.4984 12.6042 12.4687 11.9707H14.7157V12.928ZM14.7157 12.928C14.7119 12.9356 14.7065 12.9437 14.7011 12.9502H14.7157V12.928ZM10.116 8.71004C9.34771 8.71004 8.84416 9.21576 8.84416 9.87904C8.84416 10.5272 9.33147 11.0475 10.0863 11.0475H10.1009C10.8844 11.0475 11.3722 10.5272 11.3722 9.87904C11.3576 9.21576 10.8849 8.71004 10.116 8.71004ZM11.2255 11.9707H8.9779V18.7302H11.2255V11.9707Z" fill="#0091F2"/>
</svg>
