<svg width="155" height="62" viewBox="0 0 155 62" fill="none" xmlns="http://www.w3.org/2000/svg">
<g id="Logo Lockup">
<path id="Subtract" fill-rule="evenodd" clip-rule="evenodd" d="M4.71427 0H54.9865H54.992C57.3179 0 59.2063 1.89625 59.2063 4.23182V36.6127C59.2063 42.0846 56.2491 47.1228 51.4921 49.7753L31.7222 60.8025C30.5426 61.3864 29.1637 61.3864 27.9841 60.8025L8.21417 49.7753C3.45165 47.1172 0.5 42.079 0.5 36.6127V4.23182C0.5 1.89625 2.38839 0 4.71427 0ZM39.5824 27.8977C38.938 28.583 38.4714 29.3129 38.1937 30.0763L38.1992 30.0818C37.9159 30.8452 37.777 31.7422 37.777 32.7674V36.194H49.07V32.7674H41.571V32.1267C41.571 31.7032 41.6598 31.3188 41.832 30.9789C42.0042 30.639 42.3209 30.249 42.7875 29.8144C43.2541 29.3798 43.9595 28.8226 44.9039 28.1429C46.0593 27.296 46.9314 26.5215 47.5091 25.8362C48.0868 25.1508 48.4867 24.4377 48.7089 23.7022C48.9311 22.9667 49.0422 22.0641 49.0422 20.9999C49.0422 19.0442 48.6034 17.629 47.7368 16.7598C46.8647 15.885 45.4371 15.4504 43.4485 15.4504C41.4599 15.4504 40.0267 15.8906 39.1602 16.7598C38.2881 17.629 37.8548 19.0442 37.8548 20.9999V22.0752H41.4765V20.9999C41.4765 20.1474 41.6099 19.5624 41.882 19.2448C42.1542 18.9272 42.6764 18.7656 43.4485 18.7656C44.2206 18.7656 44.7428 18.9272 45.015 19.2448C45.2871 19.5624 45.4205 20.1474 45.4205 20.9999C45.4205 21.6796 45.3427 22.2424 45.1872 22.6993C45.0316 23.1506 44.7372 23.6019 44.3039 24.0476C43.8707 24.4934 43.2096 25.0283 42.3209 25.6467C41.1433 26.4602 40.2267 27.2124 39.5824 27.8977ZM26.2175 32.8231H29.3171V19.6348L26.3341 21.0277V17.395L29.6059 15.8572H32.9944V32.8231H35.6607V36.194H26.2175V32.8231ZM14.1136 15.8627V24.5212L16.2577 23.2731C16.9743 22.8664 17.4687 22.4652 17.7464 22.0696C18.0241 21.674 18.2908 20.972 18.5407 19.9635C18.8129 18.8603 19.1407 17.4952 19.5239 15.8683H23.2623L23.0568 16.626L21.9847 20.6934C21.657 21.9916 21.2959 22.9667 20.896 23.613C20.5016 24.2593 19.9239 24.8388 19.174 25.3403L24.4455 36.2051H20.2738L16.13 27.0285L14.1024 28.1038V36.2051H10.4252V15.8627H14.1136Z" fill="white"/>
<g id="Vector">
<path d="M70.0148 35.9768C69.1347 35.5927 68.4885 34.9636 68.0819 34.1063C67.6753 33.2434 67.4747 32.0966 67.4747 30.6659V29.8531H70.9283V30.6659C70.9283 31.6902 71.1177 32.3861 71.4964 32.7535C71.8752 33.1209 72.5771 33.3046 73.602 33.3046C74.2983 33.3046 74.833 33.2211 75.2118 33.0597C75.5905 32.8982 75.8523 32.6255 75.9972 32.2469C76.142 31.8683 76.2144 31.3339 76.2144 30.638C76.2144 29.7473 76.0863 29.1127 75.8356 28.7397C75.585 28.3611 75.0614 28.0494 74.2648 27.7989L71.4797 26.9304C70.0482 26.4851 69.0511 25.8226 68.4885 24.943C67.9259 24.0634 67.6474 22.7997 67.6474 21.1574C67.6474 19.7657 67.8424 18.6523 68.2267 17.8172C68.6111 16.9878 69.2349 16.381 70.0872 16.0024C70.9394 15.6238 72.0924 15.4346 73.5407 15.4346C74.989 15.4346 76.142 15.6294 76.9942 16.0135C77.8465 16.4032 78.4648 17.0212 78.8547 17.8729C79.239 18.7247 79.434 19.8548 79.434 21.2688V21.8478H75.9805V21.2688C75.9805 20.2612 75.8133 19.582 75.4847 19.2201C75.1561 18.8638 74.5155 18.6857 73.5685 18.6857C72.6216 18.6857 71.981 18.8583 71.6524 19.209C71.3238 19.5597 71.1566 20.2055 71.1566 21.1519C71.1566 21.9814 71.2792 22.5715 71.5187 22.9222C71.7582 23.2729 72.2595 23.568 73.0115 23.824L75.5961 24.6368C77.1279 25.0989 78.1974 25.7947 78.8046 26.7133C79.4117 27.6319 79.7181 28.9457 79.7181 30.6436C79.7181 32.0966 79.5176 33.249 79.1109 34.1118C78.7043 34.9747 78.0526 35.5982 77.1502 35.9824C76.2478 36.3665 75.0558 36.5613 73.563 36.5613C72.0702 36.5613 70.8893 36.3665 70.0036 35.9824L70.0148 35.9768Z" fill="white"/>
<path d="M86.9037 15.8354H91.3487L96.5179 36.1494H92.7134L91.7832 32.0298H86.4692L85.539 36.1494H81.7345L86.9037 15.8354ZM91.059 28.8956L90.1567 24.9764C89.828 23.4288 89.4994 21.7253 89.1707 19.8659H89.0538C88.7028 21.8589 88.3686 23.5624 88.0344 24.9764L87.1655 28.8956H91.059Z" fill="white"/>
<path d="M99.5648 15.8354H109.959V19.2313H103.252V24.3084H109.496V27.6764H103.252V36.1494H99.5648V15.8354Z" fill="white"/>
<path d="M113.819 15.8354H124.04V19.1422H117.479V24.0745H123.517V27.3535H117.479V32.837H124.302V36.1438H113.819V15.8354Z" fill="white"/>
<path d="M131.215 19.2591H126.569V15.8354H139.548V19.2591H134.902V36.1494H131.215V19.2591Z" fill="white"/>
<path d="M145.937 28.6005L140.595 15.8298H144.516L146.722 21.575C147.168 22.7774 147.508 23.7906 147.736 24.6201H147.881C148.154 23.5958 148.482 22.577 148.867 21.575L151.017 15.8298H154.938L149.596 28.6005V36.1438H145.937V28.6005Z" fill="white"/>
</g>
</g>
</svg>
