<svg width="80" height="80" viewBox="0 0 80 80" fill="none" xmlns="http://www.w3.org/2000/svg">
<g id="System / Mobile_Button">
<path id="Vector" d="M23.3334 20.6673V59.334C23.3334 63.0677 23.3334 64.9335 24.06 66.3596C24.6992 67.614 25.7183 68.6349 26.9727 69.2741C28.3974 70 30.2634 70 33.9897 70H46.0103C49.7367 70 51.6 70 53.0247 69.2741C54.2791 68.6349 55.3016 67.614 55.9408 66.3596C56.6667 64.9349 56.6667 63.0716 56.6667 59.3453V20.6564C56.6667 16.93 56.6667 15.064 55.9408 13.6393C55.3016 12.3849 54.2791 11.3658 53.0247 10.7266C51.5986 10 49.7344 10 46.0007 10H34.0007C30.267 10 28.3988 10 26.9727 10.7266C25.7183 11.3658 24.6992 12.3849 24.06 13.6393C23.3334 15.0654 23.3334 16.9336 23.3334 20.6673Z" stroke="url(#paint0_linear_668_1081)" stroke-width="3" stroke-linecap="round" stroke-linejoin="round"/>
</g>
<defs>
<linearGradient id="paint0_linear_668_1081" x1="30.0159" y1="61.2044" x2="70.3548" y2="32.6805" gradientUnits="userSpaceOnUse">
<stop stop-color="#015FEA"/>
<stop offset="1" stop-color="#00DBF9"/>
</linearGradient>
</defs>
</svg>
