<svg width="80" height="80" viewBox="0 0 80 80" fill="none" xmlns="http://www.w3.org/2000/svg">
<g id="Environment / Puzzle">
<path id="Vector" d="M66.6666 23.3333H59.4954C57.8371 23.3333 56.6667 21.6584 56.6667 20C56.6667 14.4772 52.1895 10 46.6667 10C41.1438 10 36.6667 14.4772 36.6667 20C36.6667 21.6584 35.4961 23.3333 33.8378 23.3333H26.6667C24.8257 23.3333 23.3333 24.8257 23.3333 26.6667V33.8378C23.3333 35.4961 21.6584 36.6667 20 36.6667C14.4772 36.6667 10 41.1438 10 46.6667C10 52.1895 14.4772 56.6667 20 56.6667C21.6584 56.6667 23.3333 57.8371 23.3333 59.4954V66.6667C23.3333 68.5076 24.8257 70 26.6667 70L66.6667 70.0001C68.5076 70.0001 70 68.5075 70 66.6666V59.4954C70 57.8371 68.325 56.6667 66.6667 56.6667C61.1438 56.6667 56.6667 52.1895 56.6667 46.6667C56.6667 41.1438 61.1438 36.6667 66.6667 36.6667C68.325 36.6667 70 35.4961 70 33.8378L70.0001 26.6667C70.0001 24.8257 68.5075 23.3333 66.6666 23.3333Z" stroke="url(#paint0_linear_668_1074)" stroke-width="3" stroke-linecap="round" stroke-linejoin="round"/>
</g>
<defs>
<linearGradient id="paint0_linear_668_1074" x1="22.0285" y1="61.2045" x2="63.5992" y2="8.29359" gradientUnits="userSpaceOnUse">
<stop stop-color="#015FEA"/>
<stop offset="1" stop-color="#00DBF9"/>
</linearGradient>
</defs>
</svg>
