<svg width="80" height="80" viewBox="0 0 80 80" fill="none" xmlns="http://www.w3.org/2000/svg">
<g id="Warning / Shield_Check">
<path id="Vector" d="M50 30L36.6667 43.3333L30 36.6667M66.6667 33.8835C66.6667 55.7777 50.1065 65.5935 43.086 68.7713L43.0771 68.7752C42.3388 69.1094 41.9686 69.2769 41.1296 69.421C40.5982 69.5122 39.4052 69.5122 38.8738 69.421C38.0314 69.2763 37.6575 69.1082 36.9132 68.7713C29.8927 65.5936 13.3334 55.7777 13.3334 33.8835V20.6673C13.3334 16.9336 13.3334 15.0654 14.06 13.6393C14.6992 12.3849 15.7183 11.3658 16.9727 10.7266C18.3988 10 20.267 10 24.0007 10H56.0007C59.7344 10 61.5986 10 63.0247 10.7266C64.2791 11.3658 65.3016 12.3849 65.9408 13.6393C66.6667 15.064 66.6667 16.93 66.6667 20.6564V33.8835Z" stroke="url(#paint0_linear_668_1086)" stroke-width="3" stroke-linecap="round" stroke-linejoin="round"/>
</g>
<defs>
<linearGradient id="paint0_linear_668_1086" x1="24.0253" y1="60.7686" x2="66.0803" y2="12.7804" gradientUnits="userSpaceOnUse">
<stop stop-color="#015FEA"/>
<stop offset="1" stop-color="#00DBF9"/>
</linearGradient>
</defs>
</svg>
