<svg width="48" height="48" viewBox="0 0 48 48" fill="none" xmlns="http://www.w3.org/2000/svg">
<path d="M34 40C34 36.6863 29.5228 34 24 34C18.4772 34 14 36.6863 14 40M42 34.0007C42 31.5404 39.5318 29.4259 36 28.5M6 34.0007C6 31.5404 8.46819 29.4259 12 28.5M36 20.4722C37.2275 19.3736 38 17.777 38 16C38 12.6863 35.3137 10 32 10C30.4633 10 29.0615 10.5777 28 11.5278M12 20.4722C10.7725 19.3736 10 17.777 10 16C10 12.6863 12.6863 10 16 10C17.5367 10 18.9385 10.5777 20 11.5278M24 28C20.6863 28 18 25.3137 18 22C18 18.6863 20.6863 16 24 16C27.3137 16 30 18.6863 30 22C30 25.3137 27.3137 28 24 28Z" stroke="url(#paint0_linear_624_9464)" stroke-width="3" stroke-linecap="round" stroke-linejoin="round"/>
<defs>
<linearGradient id="paint0_linear_624_9464" x1="13.2171" y1="35.6022" x2="32.8249" y2="5.65412" gradientUnits="userSpaceOnUse">
<stop stop-color="#015FEA"/>
<stop offset="1" stop-color="#00DBF9"/>
</linearGradient>
</defs>
</svg>
