<svg width="32" height="41" viewBox="0 0 32 41" fill="none" xmlns="http://www.w3.org/2000/svg">
<g style="mix-blend-mode:overlay">
<path d="M4.13878 11.1411C4.08866 11.5878 4.05541 12.0306 4.05541 12.4781V14.261V14.761H3.55541C1.86958 14.761 0.5 16.1394 0.5 17.826V37.4349C0.5 39.1215 1.87018 40.5 3.55541 40.5H28.4446C30.131 40.5 31.5 39.1216 31.5 37.4349V17.826C31.5 16.1394 30.1304 14.761 28.4446 14.761H8.88885H8.38885V14.261V12.4781C8.38885 11.9395 8.46747 11.4112 8.56559 10.9296L8.56564 10.9294C8.71807 10.1833 8.99466 9.49697 9.3335 8.86469L9.33418 8.86342C9.34925 8.83549 9.36674 8.80174 9.3861 8.76439C9.4394 8.66152 9.50685 8.53137 9.57682 8.42042C9.70805 8.21058 9.85633 8.01879 9.98845 7.8479C9.99833 7.83512 10.0081 7.82247 10.0178 7.80994L10.0192 7.80813C10.0328 7.79065 10.0467 7.77278 10.0608 7.75457C10.1689 7.61541 10.2918 7.45716 10.4285 7.30936L10.7956 7.64889L10.4285 7.30936C10.5796 7.14604 10.7379 6.9971 10.8883 6.85921L10.8887 6.85884C11.083 6.68109 11.2868 6.51165 11.5009 6.35299C11.6456 6.24553 11.7982 6.13758 11.9587 6.03594L11.9594 6.03548C12.2072 5.8791 12.4639 5.74361 12.7183 5.62129M4.13878 11.1411L12.9349 6.07192M4.13878 11.1411L4.19236 10.7667C5.02327 4.96283 9.98665 0.5 15.9997 0.5C21.8121 0.5 26.6242 4.67282 27.6878 10.1959M4.13878 11.1411L28.1966 10.1959H27.6878M12.7183 5.62129L12.9349 6.07192M12.7183 5.62129C12.7183 5.62131 12.7182 5.62134 12.7182 5.62136L12.9349 6.07192M12.7183 5.62129C12.7473 5.60733 12.7785 5.59204 12.8113 5.57594C12.9258 5.51974 13.0606 5.45362 13.1958 5.39904L13.1978 5.39823C13.5038 5.27625 13.8163 5.18717 14.1156 5.11042M12.9349 6.07192C12.971 6.05456 13.0069 6.03697 13.0427 6.01939C13.1547 5.96452 13.2663 5.90977 13.3829 5.86268C13.6596 5.75238 13.9483 5.66949 14.2403 5.59462M14.1156 5.11042C14.1155 5.11044 14.1154 5.11046 14.1153 5.11048L14.2403 5.59462M14.1156 5.11042C14.1158 5.11038 14.1159 5.11033 14.1161 5.11028L14.2403 5.59462M14.1156 5.11042C14.1352 5.10534 14.1661 5.09639 14.2037 5.08549C14.3 5.0576 14.4402 5.01701 14.5475 4.99618M14.2403 5.59462C14.29 5.58177 14.3392 5.56738 14.3883 5.55299C14.4721 5.52842 14.556 5.50385 14.643 5.48699M14.643 5.48699L14.5475 4.99618M14.643 5.48699C15.083 5.40142 15.5357 5.34794 16.0003 5.34794C19.3124 5.34794 22.0425 7.62215 22.8338 10.6959M14.643 5.48699L14.5479 4.99612C14.5478 4.99614 14.5476 4.99616 14.5475 4.99618M14.5475 4.99618C15.0121 4.90584 15.4973 4.84794 16.0003 4.84794C19.4151 4.84794 22.2469 7.10348 23.2113 10.1959M22.8338 10.6959V10.1959H23.2113M22.8338 10.6959H27.7733C27.7482 10.5281 27.7197 10.3614 27.6878 10.1959M22.8338 10.6959L23.318 10.5712C23.2855 10.4448 23.2499 10.3197 23.2113 10.1959M23.2113 10.1959H27.6878" stroke="#00DBF9"/>
</g>
</svg>
